<?xml version="1.0" encoding="iso-8859-1"?>
<!-- Generator: Adobe Illustrator 16.0.0, SVG Export Plug-In . SVG Version: 6.00 Build 0)  -->
<!DOCTYPE svg PUBLIC "-//W3C//DTD SVG 1.1//EN" "http://www.w3.org/Graphics/SVG/1.1/DTD/svg11.dtd">
<svg version="1.1" id="Capa_1" xmlns="http://www.w3.org/2000/svg" xmlns:xlink="http://www.w3.org/1999/xlink" x="0px" y="0px"
	 width="792px" height="792px" viewBox="0 0 792 792" style="enable-background:new 0 0 792 792;" xml:space="preserve">
<g>
	<g>
		<path d="M140.681,784.792c-3.28,0-6.598-0.648-9.802-1.983c-13.578-5.798-19.68-22.121-13.578-36.423l114.685-272.238
			c2.06-4.882,7.704-7.17,12.51-5.11c4.844,2.059,7.132,7.627,5.073,12.471L134.845,753.784c-1.945,4.577-0.381,9.84,3.433,11.48
			c3.852,1.602,8.62-0.839,10.564-5.568L267.15,479.525c2.06-4.844,7.704-7.133,12.51-5.073c4.844,2.06,7.132,7.628,5.072,12.51
			L166.425,767.133C161.848,778.117,151.398,784.792,140.681,784.792z"/>
		<path d="M648.924,785.363c-3.585,0-7.132-0.687-10.526-2.06c-6.941-2.822-12.357-8.199-15.256-15.103L504.186,485.589
			c-2.06-4.844,0.229-10.412,5.072-12.472c4.92-2.136,10.45,0.268,12.51,5.111L640.724,760.84c0.916,2.25,2.632,3.929,4.844,4.806
			c2.251,0.915,4.653,0.839,6.903-0.076c4.577-1.945,6.751-7.323,4.806-11.938L544.423,482.004
			c-2.021-4.844,0.267-10.412,5.148-12.434c4.806-2.098,10.412,0.229,12.472,5.149l112.854,271.589
			c5.95,14.227-0.763,30.778-14.95,36.843C656.4,784.601,652.701,785.363,648.924,785.363z"/>
		<path d="M394.993,792c-14.722,0-26.659-11.938-26.659-26.659V486.81c0-5.263,4.271-9.535,9.535-9.535s9.535,4.272,9.535,9.535
			v278.531c0,4.157,3.395,7.59,7.59,7.59c4.196,0,7.589-3.433,7.589-7.59V486.81c0-5.263,4.272-9.535,9.535-9.535
			c5.264,0,9.535,4.272,9.535,9.535v278.531C421.653,780.024,409.715,792,394.993,792z"/>
		<path d="M619.633,489.479H170.391c-20.862,0-37.262-11.709-37.262-26.659c0-15.027,16.362-26.736,37.262-26.736h449.242
			c20.824,0,37.186,11.747,37.186,26.736C656.819,477.771,640.496,489.479,619.633,489.479z M170.391,455.154
			c-11.099,0-18.192,5.034-18.192,7.666c0,2.212,6.369,7.59,18.192,7.59h449.242c11.747,0,18.116-5.416,18.116-7.59
			c0-2.632-7.056-7.666-18.116-7.666H170.391z"/>
		<path d="M574.667,454.392H221.269c-5.263,0-9.535-4.272-9.535-9.535V81.923c0-5.263,4.272-9.535,9.535-9.535h353.398
			c5.263,0,9.534,4.272,9.534,9.535v362.933C584.202,450.119,579.93,454.392,574.667,454.392z M230.804,435.321h334.329V91.458
			H230.804V435.321z"/>
		<path d="M379.928,90.886c-5.263,0-9.535-4.271-9.535-9.535V26.659C370.394,11.938,382.369,0,397.052,0
			c14.684,0,26.66,11.938,26.66,26.659v54.234c0,5.263-4.271,9.535-9.535,9.535s-9.535-4.271-9.535-9.535V26.659
			c0.038-4.157-3.395-7.589-7.59-7.589c-4.195,0-7.589,3.432-7.589,7.589v54.692C389.463,86.614,385.191,90.886,379.928,90.886z"/>
		<path d="M461.203,115.791H335.877c-4.195,0-7.628-3.433-7.628-7.628V84.326c0-4.195,3.433-7.628,7.628-7.628
			s7.628,3.433,7.628,7.628v16.209h110.069V84.326c0-4.195,3.433-7.628,7.628-7.628s7.628,3.433,7.628,7.628v23.837
			C468.831,112.358,465.398,115.791,461.203,115.791z"/>
		<g>
			<path d="M606.857,709.391H414.94c-5.148,0-9.344-4.043-9.535-9.191l-0.877-25.516c-0.076-2.594,0.877-5.11,2.67-6.979
				s4.271-2.898,6.865-2.898l0,0l181.771,0.457c3.775,0,7.17,2.251,8.696,5.684l11.06,25.019c1.297,2.938,1.03,6.332-0.725,9.039
				C613.112,707.75,610.099,709.391,606.857,709.391z M424.131,690.32h168.08l-2.632-5.949l-165.677-0.42L424.131,690.32z"/>
			<path d="M376.419,709.391H187.821c-2.975,0-5.797-1.373-7.59-3.776c-1.792-2.364-2.403-5.454-1.602-8.314l7.284-26.354
				c1.145-4.119,4.882-7.018,9.192-7.018h0.038l180.398,0.877c5.111,0.038,9.306,4.081,9.497,9.191l0.877,25.477
				c0.076,2.556-0.877,5.111-2.67,6.979C381.492,708.322,379.013,709.391,376.419,709.391z M200.369,690.32H366.58l-0.229-6.445
				l-163.96-0.801L200.369,690.32z"/>
		</g>
	</g>
</g>
<g>
</g>
<g>
</g>
<g>
</g>
<g>
</g>
<g>
</g>
<g>
</g>
<g>
</g>
<g>
</g>
<g>
</g>
<g>
</g>
<g>
</g>
<g>
</g>
<g>
</g>
<g>
</g>
<g>
</g>
</svg>
